<svg width="41" height="42" viewBox="0 0 41 42" fill="none" xmlns="http://www.w3.org/2000/svg">
<path d="M25.1244 41.0161C24.851 41.0161 24.6288 40.7939 24.6288 40.5376C24.6288 33.9921 24.5775 26.7119 24.6459 20.2177C24.6972 15.2958 25.9276 10.6986 29.1747 6.83632C32.1313 3.3158 35.9423 1.17957 40.3857 0.017454C40.6933 -0.0679954 41.0009 0.171263 41.0009 0.495971V8.40859C41.0009 8.61367 40.8813 8.80166 40.6933 8.87002C40.1635 9.07509 39.6166 9.28017 39.0698 9.51943C36.5917 10.5961 34.9511 12.3564 34.3188 15.0566C33.7548 17.432 33.6864 19.8246 33.7206 22.3198C33.7206 22.5932 33.9428 22.7983 34.1991 22.7983H40.5053C40.7788 22.7983 41.0009 23.0204 41.0009 23.2939V40.5205C41.0009 40.7939 40.7788 41.0161 40.5053 41.0161H25.1244Z" fill="#3D7088"/>
<path d="M0.514064 41.0161C0.240626 41.0161 0.0184571 40.7939 0.0184571 40.5376C0.0184571 33.9921 -0.0328126 26.7119 0.035547 20.2177C0.0868166 15.2787 1.31729 10.6986 4.56437 6.83632C7.52092 3.29871 11.332 1.17957 15.7753 0.017454C16.0829 -0.0679954 16.3906 0.171263 16.3906 0.495971V8.40859C16.3906 8.61367 16.2709 8.80166 16.0829 8.87002C15.5532 9.07509 15.0063 9.28017 14.4765 9.51943C11.9985 10.5961 10.3578 12.3564 9.72551 15.0566C9.16155 17.432 9.09319 19.8246 9.12737 22.3198C9.12737 22.5932 9.34953 22.7983 9.60588 22.7983H15.9121C16.1855 22.7983 16.4077 23.0204 16.4077 23.2939V40.5205C16.4077 40.7939 16.1855 41.0161 15.9121 41.0161H0.514064Z" fill="#3D7088"/>
</svg>
